<svg width="41" height="45" viewBox="0 0 41 45" fill="none" xmlns="http://www.w3.org/2000/svg">
<mask id="mask0_4078_520" style="mask-type:luminance" maskUnits="userSpaceOnUse" x="2" y="3" width="37" height="39">
<path d="M18.5918 24.2201L27.4793 10.1576C28.023 10.4763 28.548 10.8138 29.0355 11.1888L33.7605 9.29507C34.0605 9.18257 34.5668 9.23882 34.7168 9.53882L38.598 16.2513C38.7855 16.5701 38.7105 17.0951 38.4668 17.3201L34.398 20.4701C34.4918 21.0888 34.5293 21.7076 34.5293 22.3451L18.5918 24.2201Z" fill="white"/>
<path d="M17.905 21.6588L34.5272 22.3244C34.523 22.9546 34.4933 23.578 34.4123 24.1877L38.4148 27.3328C38.6622 27.5364 38.8666 28.0029 38.6818 28.2828L34.8092 35.0004C34.627 35.3221 34.1348 35.5197 33.8181 35.4211L29.0557 33.4724C28.5667 33.863 28.0496 34.2048 27.4975 34.5236L17.905 21.6588Z" fill="white"/>
<path d="M19.78 19.7837L27.5147 34.5118C26.9668 34.8233 26.412 35.1092 25.8435 35.3439L25.121 40.3827C25.0685 40.6988 24.7666 41.1091 24.4318 41.089L16.678 41.094C16.3082 41.097 15.891 40.7696 15.8181 40.446L15.1245 35.3473C14.5417 35.1191 13.9871 34.8422 13.435 34.5235L19.78 19.7837Z" fill="white"/>
<path d="M22.3418 20.4701L13.4543 34.5326C12.9105 34.2139 12.3855 33.8764 11.898 33.5014L7.17305 35.3951C6.87305 35.5076 6.3668 35.4514 6.2168 35.1514L2.33555 28.4389C2.14805 28.1201 2.22305 27.5951 2.4668 27.3701L6.53555 24.2201C6.4418 23.6014 6.4043 22.9826 6.4043 22.3451L22.3418 20.4701Z" fill="white"/>
<path d="M23.0286 23.0314L6.40638 22.3658C6.41055 21.7356 6.44033 21.1121 6.52134 20.5025L2.51881 17.3574C2.27138 17.1538 2.06697 16.6873 2.25178 16.4073L6.12435 9.68984C6.30664 9.36808 6.7988 9.17053 7.11554 9.26913L11.8779 11.2178C12.3669 10.8272 12.884 10.4854 13.4361 10.1666L23.0286 23.0314Z" fill="white"/>
<path d="M21.1536 24.9064L13.4189 10.1783C13.9668 9.86679 14.5216 9.58087 15.0901 9.34619L15.8126 4.30734C15.8651 3.99128 16.167 3.58098 16.5018 3.60108L24.2556 3.59607C24.6254 3.59306 25.0426 3.92051 25.1155 4.24411L25.8091 9.34275C26.3919 9.57093 26.9465 9.84783 27.4986 10.1666L21.1536 24.9064Z" fill="white"/>
<path d="M20.4668 28.9076C24.0912 28.9076 27.0293 25.9695 27.0293 22.3451C27.0293 18.7207 24.0912 15.7826 20.4668 15.7826C16.8424 15.7826 13.9043 18.7207 13.9043 22.3451C13.9043 25.9695 16.8424 28.9076 20.4668 28.9076Z" fill="black"/>
</mask>
<g mask="url(#mask0_4078_520)">
<path d="M39 -0.154907H-6V44.8451H39V-0.154907Z" fill="#81859E"/>
</g>
</svg>
