<svg width="42" height="42" viewBox="0 0 42 42" fill="none" xmlns="http://www.w3.org/2000/svg">
<path d="M21 5.25C24.8675 5.25 28 8.3825 28 12.25C28 16.1175 24.8675 19.25 21 19.25C17.1325 19.25 14 16.1175 14 12.25C14 8.3825 17.1325 5.25 21 5.25ZM28 23.695C28 25.55 27.51 29.8725 24.1675 34.7025L22.75 26.25L24.395 22.96C23.31 22.8375 22.1725 22.75 21 22.75C19.8275 22.75 18.69 22.8375 17.605 22.96L19.25 26.25L17.8325 34.7025C14.49 29.8725 14 25.55 14 23.695C9.8175 24.92 7 27.125 7 29.75V36.75H35V29.75C35 27.125 32.2 24.92 28 23.695Z" fill="#81859E"/>
</svg>
