<svg width="42" height="42" viewBox="0 0 42 42" fill="none" xmlns="http://www.w3.org/2000/svg">
<path d="M38.9904 25.3221L35.0529 21.3846C34.8068 21.1385 34.473 21.0003 34.125 21.0003C33.777 21.0003 33.4432 21.1385 33.1971 21.3846L21 33.5816V39.375H26.7934L38.9904 27.1779C39.2365 26.9318 39.3747 26.598 39.3747 26.25C39.3747 25.902 39.2365 25.5682 38.9904 25.3221ZM25.7066 36.75H23.625V34.6684L30.1875 28.1059L32.2691 30.1875L25.7066 36.75ZM34.125 28.3316L32.0434 26.25L34.125 24.1684L36.2066 26.25L34.125 28.3316ZM26.25 17.0625V14.4375H23.4386C23.3154 13.968 23.1277 13.5179 22.8808 13.1001L24.8719 11.109L23.016 9.25313L21.0249 11.2442C20.6071 10.9973 20.157 10.8096 19.6875 10.6864V7.875H17.0625V10.6864C16.593 10.8096 16.1429 10.9973 15.7251 11.2442L13.734 9.25313L11.8781 11.109L13.8692 13.1001C13.6223 13.5179 13.4346 13.968 13.3114 14.4375H10.5V17.0625H13.3114C13.4346 17.532 13.6223 17.9821 13.8692 18.3999L11.8781 20.391L13.734 22.2469L15.7251 20.2558C16.1429 20.5027 16.593 20.6904 17.0625 20.8136V23.625H19.6875V20.8136C20.157 20.6904 20.6071 20.5027 21.0249 20.2558L23.016 22.2469L24.8719 20.391L22.8808 18.3999C23.1277 17.9821 23.3154 17.532 23.4386 17.0625H26.25ZM18.375 18.375C17.8558 18.375 17.3483 18.221 16.9166 17.9326C16.4849 17.6442 16.1485 17.2342 15.9498 16.7545C15.7511 16.2749 15.6992 15.7471 15.8004 15.2379C15.9017 14.7287 16.1517 14.261 16.5188 13.8938C16.886 13.5267 17.3537 13.2767 17.8629 13.1754C18.3721 13.0742 18.8999 13.1261 19.3795 13.3248C19.8592 13.5235 20.2692 13.8599 20.5576 14.2916C20.846 14.7233 21 15.2308 21 15.75C20.999 16.4459 20.7221 17.1129 20.23 17.605C19.7379 18.0971 19.0709 18.374 18.375 18.375Z" fill="#81859E"/>
<path d="M15.75 39.375H7.875C7.17881 39.375 6.51113 39.0984 6.01884 38.6062C5.52656 38.1139 5.25 37.4462 5.25 36.75V5.25C5.25 4.55381 5.52656 3.88613 6.01884 3.39384C6.51113 2.90156 7.17881 2.625 7.875 2.625H28.875C29.5712 2.625 30.2389 2.90156 30.7312 3.39384C31.2234 3.88613 31.5 4.55381 31.5 5.25V18.375H28.875V5.25H7.875V36.75H15.75V39.375Z" fill="#81859E"/>
</svg>
