<svg width="41" height="41" viewBox="0 0 41 41" fill="none" xmlns="http://www.w3.org/2000/svg">
<path fill-rule="evenodd" clip-rule="evenodd" d="M38.4376 11.5312C38.4378 12.7231 38.2004 13.9032 37.7393 15.0023C37.2782 16.1015 36.6026 17.0977 35.7521 17.9327C34.9015 18.7677 33.8931 19.4249 32.7856 19.8657C31.6782 20.3065 30.494 20.5221 29.3023 20.5C26.7654 20.4513 23.939 20.8382 22.3835 22.8395L11.8004 36.4464C11.3509 37.0245 10.7836 37.5005 10.1361 37.8426C9.48864 38.1847 8.77579 38.3851 8.0449 38.4306C7.31401 38.4762 6.58179 38.3657 5.89687 38.1065C5.21194 37.8474 4.58997 37.4455 4.07224 36.9276C3.55451 36.4097 3.15287 35.7876 2.89398 35.1026C2.63509 34.4176 2.52487 33.6853 2.57064 32.9544C2.61642 32.2236 2.81713 31.5108 3.15946 30.8634C3.5018 30.2161 3.97792 29.6489 4.55622 29.1996L18.1605 18.6165C20.1593 17.0611 20.5488 14.2346 20.5027 11.6978L20.5001 11.5312C20.4996 10.1393 20.8232 8.76636 21.4451 7.5211C22.067 6.27584 22.9702 5.19242 24.0832 4.35659C25.1963 3.52076 26.4886 2.95546 27.8578 2.70544C29.2271 2.45542 30.6358 2.52754 31.9724 2.91608C32.8052 3.15696 32.9718 4.18964 32.3568 4.80208L27.1626 9.99883C26.9397 10.2155 26.807 10.5084 26.7914 10.8189C26.7757 11.1293 26.8781 11.4342 27.078 11.6721C27.7733 12.4785 28.5241 13.2293 29.3305 13.9246C29.5685 14.1245 29.8733 14.2269 30.1837 14.2113C30.4942 14.1956 30.7872 14.0629 31.0038 13.84L36.198 8.64583C36.8104 8.03083 37.8431 8.19739 38.084 9.03021C38.3163 9.82629 38.4342 10.66 38.4376 11.5312ZM9.60947 33.3125C9.60947 33.8222 9.40698 34.311 9.04656 34.6714C8.68614 35.0318 8.1973 35.2343 7.68759 35.2343C7.17788 35.2343 6.68904 35.0318 6.32862 34.6714C5.9682 34.311 5.76572 33.8222 5.76572 33.3125C5.76572 32.8027 5.9682 32.3139 6.32862 31.9535C6.68904 31.5931 7.17788 31.3906 7.68759 31.3906C8.1973 31.3906 8.68614 31.5931 9.04656 31.9535C9.40698 32.3139 9.60947 32.8027 9.60947 33.3125Z" fill="#81859E"/>
<path d="M29.4691 24.3438C30.272 24.3438 31.0552 24.2721 31.8189 24.1286L36.8465 29.1562C37.8659 30.1756 38.4386 31.5582 38.4386 32.9999C38.4386 34.4416 37.8659 35.8242 36.8465 36.8437C35.8271 37.8631 34.4444 38.4358 33.0027 38.4358C31.5611 38.4358 30.1784 37.8631 29.159 36.8437L21.9584 29.6431L25.4177 25.1997C25.5459 25.0357 25.8226 24.7948 26.5094 24.6026C27.2217 24.4027 28.1468 24.3207 29.2307 24.3412L29.4691 24.3438ZM12.8128 10.2501L16.5182 13.9529C16.4877 14.1343 16.4475 14.3139 16.3977 14.491C16.2056 15.1777 15.9647 15.4571 15.8007 15.5852L14.2376 16.7998L10.2503 12.8126H6.8063C6.68694 12.8125 6.56996 12.7792 6.46854 12.7163C6.36712 12.6533 6.2853 12.5633 6.2323 12.4564L2.77293 5.53762C2.7126 5.41719 2.69176 5.28081 2.71339 5.14786C2.73501 5.01491 2.79798 4.89216 2.89336 4.79705L4.80243 2.88799C4.89753 2.79261 5.02028 2.72964 5.15323 2.70802C5.28618 2.68639 5.42256 2.70723 5.54299 2.76755L12.4617 6.22693C12.5677 6.28064 12.6567 6.36276 12.7187 6.46413C12.7807 6.5655 12.8133 6.68211 12.8128 6.80093V10.2501Z" fill="#81859E"/>
</svg>
