<svg width="44" height="44" viewBox="0 0 44 44" fill="none" xmlns="http://www.w3.org/2000/svg">
<path d="M19.2506 10.625C19.2506 10.2603 19.3954 9.91059 19.6533 9.65273C19.9111 9.39487 20.2609 9.25 20.6256 9.25H23.6836C24.4696 9.25019 25.2392 9.47496 25.9018 9.89785C26.5644 10.3207 27.0924 10.9241 27.4236 11.637L28.3448 13.6225C29.0983 12.6353 30.2891 12 31.6255 12H34.3755C34.7402 12 35.09 12.1449 35.3478 12.4027C35.6057 12.6606 35.7505 13.0103 35.7505 13.375V18.875C35.7505 19.2397 35.6057 19.5894 35.3478 19.8473C35.09 20.1051 34.7402 20.25 34.3755 20.25H31.6255C31.5559 20.25 31.4871 20.2482 31.4193 20.2445L32.7861 23.187C33.2957 23.0623 33.8256 23 34.3755 23C36.0102 22.9999 37.5915 23.5822 38.8356 24.6425C40.0797 25.7028 40.9053 27.1718 41.1643 28.7858C41.4233 30.3998 41.0987 32.0533 40.2488 33.4497C39.3988 34.846 38.0791 35.8938 36.5265 36.4051C34.9738 36.9163 33.2898 36.8577 31.7765 36.2395C30.2632 35.6214 29.0196 34.4843 28.2689 33.0322C27.5183 31.58 27.3096 29.908 27.6803 28.3159C28.051 26.7238 28.9769 25.3159 30.2918 24.3448L29.3403 22.296C28.7381 23.3458 27.8694 24.218 26.822 24.8245C25.7747 25.431 24.5858 25.7502 23.3756 25.75H15.1256C15.7278 26.5475 16.1568 27.4825 16.3631 28.5H24.1016C23.4612 29.3538 22.6308 30.0469 21.6761 30.5242C20.7215 31.0015 19.6689 31.25 18.6016 31.25H16.3631C16.1029 32.5245 15.4865 33.6991 14.5855 34.6372C13.6844 35.5754 12.5357 36.2387 11.2727 36.5501C10.0098 36.8615 8.68436 36.8082 7.45047 36.3964C6.21658 35.9846 5.12484 35.2312 4.30205 34.2237C3.47925 33.2162 2.95917 31.9959 2.8022 30.7046C2.64523 29.4133 2.85781 28.104 3.41526 26.9287C3.97272 25.7534 4.85216 24.7604 5.95145 24.065C7.05074 23.3696 8.32476 23.0003 9.62555 23H15.6508L16.5006 21.3005C17.0715 20.1585 17.9492 19.1981 19.0352 18.5269C20.1213 17.8556 21.3728 17.5 22.6496 17.5H27.1155L24.9321 12.7975C24.8218 12.5593 24.6456 12.3575 24.4244 12.2162C24.2032 12.0749 23.9461 11.9999 23.6836 12H20.6256C20.2609 12 19.9111 11.8551 19.6533 11.5973C19.3954 11.3394 19.2506 10.9897 19.2506 10.625ZM33.1298 30.4525L31.4908 26.927C30.7952 27.6075 30.3625 28.5119 30.2693 29.4805C30.1761 30.4491 30.4283 31.4195 30.9813 32.2201C31.5343 33.0208 32.3526 33.6001 33.2915 33.8558C34.2304 34.1115 35.2294 34.027 36.1121 33.6173C36.9947 33.2076 37.7041 32.4991 38.1148 31.617C38.5256 30.7348 38.6112 29.7359 38.3567 28.7967C38.1022 27.8575 37.5238 27.0385 36.7238 26.4845C35.9238 25.9305 34.9538 25.6772 33.9851 25.7692L35.6213 29.2947C35.7613 29.623 35.7681 29.9928 35.6404 30.326C35.5127 30.6593 35.2605 30.9298 34.937 31.0805C34.6136 31.2311 34.2442 31.2501 33.9069 31.1335C33.5697 31.0168 33.291 30.7736 33.1298 30.4553M9.62555 25.75C8.53154 25.75 7.48233 26.1846 6.70874 26.9582C5.93515 27.7318 5.50055 28.781 5.50055 29.875C5.50055 30.969 5.93515 32.0182 6.70874 32.7918C7.48233 33.5654 8.53154 34 9.62555 34C10.7196 34 11.7688 33.5654 12.5424 32.7918C13.316 32.0182 13.7506 30.969 13.7506 29.875C13.7506 28.781 13.316 27.7318 12.5424 26.9582C11.7688 26.1846 10.7196 25.75 9.62555 25.75ZM30.2506 16.125C30.2506 16.4897 30.3954 16.8394 30.6533 17.0973C30.9111 17.3551 31.2609 17.5 31.6255 17.5H33.0005V14.75H31.6255C31.2609 14.75 30.9111 14.8949 30.6533 15.1527C30.3954 15.4106 30.2506 15.7603 30.2506 16.125Z" fill="#81859E"/>
</svg>
