<svg width="70" height="70" viewBox="0 0 70 70" fill="none" xmlns="http://www.w3.org/2000/svg">
<path fill-rule="evenodd" clip-rule="evenodd" d="M35.0006 3.64587C33.2361 3.64587 31.6115 4.08337 29.8352 4.81837C28.1173 5.53004 26.1223 6.57712 23.6402 7.88087L17.6086 11.0455C14.5607 12.6438 12.1252 13.9242 10.2382 15.1813C8.28982 16.485 6.78482 17.8559 5.69107 19.7138C4.60023 21.5659 4.11023 23.5725 3.87398 25.9613C3.64648 28.28 3.64648 31.1296 3.64648 34.7171V35.283C3.64648 38.8705 3.64648 41.72 3.87398 44.0388C4.11023 46.4305 4.60315 48.4342 5.69107 50.2863C6.78482 52.1442 8.2869 53.515 10.2411 54.8188C12.1223 56.0759 14.5607 57.3563 17.6086 58.9546L23.6402 62.1192C26.1223 63.423 28.1173 64.47 29.8352 65.1817C31.6144 65.9167 33.2361 66.3542 35.0006 66.3542C36.7652 66.3542 38.3898 65.9167 40.1661 65.1817C41.884 64.47 43.879 63.423 46.3611 62.1192L52.3927 58.9575C55.4406 57.3563 57.8761 56.0759 59.7602 54.8188C61.7144 53.515 63.2165 52.1442 64.3102 50.2863C65.4011 48.4342 65.8911 46.4275 66.1273 44.0388C66.3548 41.72 66.3548 38.8705 66.3548 35.2859V34.7142C66.3548 31.1296 66.3548 28.28 66.1273 25.9613C65.8911 23.5696 65.3981 21.5659 64.3102 19.7138C63.2165 17.8559 61.7144 16.485 59.7602 15.1813C57.879 13.9242 55.4406 12.6438 52.3927 11.0455L46.3611 7.88087C43.879 6.57712 41.884 5.53004 40.1661 4.81837C38.3869 4.08337 36.7652 3.64587 35.0006 3.64587ZM25.5798 11.8009C28.1757 10.4388 29.9956 9.48796 31.5065 8.86379C32.9765 8.25421 34.0119 8.02087 35.0006 8.02087C35.9923 8.02087 37.0248 8.25421 38.4948 8.86379C40.0056 9.48796 41.8227 10.4388 44.4186 11.8009L50.2519 14.8634C53.4311 16.5288 55.6623 17.7042 57.3336 18.8184C58.1561 19.3696 58.8006 19.88 59.3256 20.3934L49.6102 25.2496L24.8186 12.2005L25.5798 11.8009ZM20.2569 14.595L19.7494 14.8634C16.5702 16.5288 14.339 17.7042 12.6707 18.8184C11.9593 19.2806 11.2924 19.8079 10.6786 20.3934L35.0006 32.5559L44.7919 27.6559L20.8577 15.0617C20.6333 14.9401 20.4303 14.7824 20.2569 14.595ZM8.56982 24.2288C8.42398 24.853 8.31023 25.5617 8.22857 26.3871C8.0244 28.4696 8.02148 31.1034 8.02148 34.828V35.1692C8.02148 38.8967 8.02148 41.5305 8.22857 43.61C8.42982 45.643 8.8119 46.9584 9.46232 48.0667C10.1098 49.1663 11.0461 50.0967 12.6707 51.1817C14.339 52.2959 16.5702 53.4713 19.7494 55.1367L25.5827 58.1992C28.1786 59.5613 29.9956 60.5121 31.5065 61.1363C31.9809 61.3327 32.4165 61.4931 32.8131 61.6175V36.3505L8.56982 24.2288ZM37.1881 61.6146C37.5848 61.4921 38.0204 61.3327 38.4948 61.1363C40.0056 60.5121 41.8227 59.5613 44.4186 58.1992L50.2519 55.1367C53.4311 53.4684 55.6623 52.2959 57.3336 51.1817C58.9552 50.0967 59.8915 49.1663 60.5419 48.0667C61.1923 46.9584 61.5715 45.6459 61.7727 43.61C61.9769 41.5305 61.9798 38.8967 61.9798 35.1721V34.8309C61.9798 31.1034 61.9798 28.4696 61.7727 26.39C61.7041 25.6642 61.5901 24.9433 61.4315 24.2317L51.7715 29.0588V37.9167C51.7715 38.4969 51.541 39.0533 51.1308 39.4635C50.7205 39.8737 50.1641 40.1042 49.584 40.1042C49.0038 40.1042 48.4474 39.8737 48.0372 39.4635C47.6269 39.0533 47.3965 38.4969 47.3965 37.9167V31.2492L37.1881 36.3534V61.6146Z" fill="#D31813"/>
</svg>
