<svg width="20" height="20" viewBox="0 0 29 29" fill="none" xmlns="http://www.w3.org/2000/svg">
<path d="M14.2458 17.2792L3.62917 27.8958C3.23194 28.2931 2.72639 28.4917 2.1125 28.4917C1.49861 28.4917 0.993055 28.2931 0.595833 27.8958C0.19861 27.4986 0 26.9931 0 26.3792C0 25.7653 0.19861 25.2597 0.595833 24.8625L11.2125 14.2458L0.595833 3.62917C0.19861 3.23194 0 2.72639 0 2.1125C0 1.49861 0.19861 0.993055 0.595833 0.595833C0.993055 0.19861 1.49861 0 2.1125 0C2.72639 0 3.23194 0.19861 3.62917 0.595833L14.2458 11.2125L24.8625 0.595833C25.2597 0.19861 25.7653 0 26.3792 0C26.9931 0 27.4986 0.19861 27.8958 0.595833C28.2931 0.993055 28.4917 1.49861 28.4917 2.1125C28.4917 2.72639 28.2931 3.23194 27.8958 3.62917L17.2792 14.2458L27.8958 24.8625C28.2931 25.2597 28.4917 25.7653 28.4917 26.3792C28.4917 26.9931 28.2931 27.4986 27.8958 27.8958C27.4986 28.2931 26.9931 28.4917 26.3792 28.4917C25.7653 28.4917 25.2597 28.2931 24.8625 27.8958L14.2458 17.2792Z" fill="#555555"/>
</svg>
