<svg width="162" height="127" viewBox="0 0 162 127" fill="none" xmlns="http://www.w3.org/2000/svg">
<path d="M5 92.1875L44.9822 52.2052C46.6015 50.586 48.5238 49.3016 50.6394 48.4252C52.755 47.5489 55.0226 47.0978 57.3125 47.0978C59.6024 47.0978 61.87 47.5489 63.9856 48.4252C66.1012 49.3016 68.0235 50.586 69.6427 52.2052L109.625 92.1875M98 80.5625L108.92 69.6427C110.539 68.0235 112.461 66.7391 114.577 65.8627C116.693 64.9864 118.96 64.5353 121.25 64.5353C123.54 64.5353 125.807 64.9864 127.923 65.8627C130.039 66.7391 131.961 68.0235 133.58 69.6427L156.125 92.1875M16.625 121.25H144.5C147.583 121.25 150.54 120.025 152.72 117.845C154.9 115.665 156.125 112.708 156.125 109.625V16.625C156.125 13.5419 154.9 10.585 152.72 8.40488C150.54 6.22477 147.583 5 144.5 5H16.625C13.5419 5 10.585 6.22477 8.40488 8.40488C6.22477 10.585 5 13.5419 5 16.625V109.625C5 112.708 6.22477 115.665 8.40488 117.845C10.585 120.025 13.5419 121.25 16.625 121.25ZM98 34.0625H98.062V34.1245H98V34.0625ZM100.906 34.0625C100.906 34.8333 100.6 35.5725 100.055 36.1175C99.51 36.6626 98.7708 36.9688 98 36.9688C97.2292 36.9688 96.49 36.6626 95.945 36.1175C95.3999 35.5725 95.0938 34.8333 95.0938 34.0625C95.0938 33.2917 95.3999 32.5525 95.945 32.0075C96.49 31.4624 97.2292 31.1562 98 31.1562C98.7708 31.1562 99.51 31.4624 100.055 32.0075C100.6 32.5525 100.906 33.2917 100.906 34.0625Z" stroke="#BFC0C0" stroke-width="10" stroke-linecap="round" stroke-linejoin="round"/>
</svg>
